<svg height="100%" width="100%" id="bg-svg" viewBox="0 0 1440 400" xmlns="http://www.w3.org/2000/svg" class="transition duration-300 ease-in-out delay-150" width="1853"  height="515" ><defs><linearGradient id="gradient"><stop offset="5%" stop-color="#0693e388"></stop><stop offset="95%" stop-color="#8ed1fc88"></stop></linearGradient></defs><path d="M 0,400 C 0,400 0,133 0,133 C 83.02370319477842,145.32428718653384 166.04740638955684,157.64857437306767 233,158 C 299.95259361044316,158.35142562693233 350.83407763655106,146.72998969426314 413,135 C 475.16592236344894,123.27001030573686 548.616283064239,111.43146684987977 630,121 C 711.383716935761,130.56853315012023 800.7007901064927,161.5441429062178 860,166 C 919.2992098935073,170.4558570937822 948.5805565097903,148.39196152524906 1000,151 C 1051.4194434902097,153.60803847475094 1124.9769838543457,180.88801099278598 1202,182 C 1279.0230161456543,183.11198900721402 1359.5115080728272,158.055994503607 1440,133 C 1440,133 1440,400 1440,400 Z" stroke="none" stroke-width="0px" fill="url(&quot;#gradient&quot;)" class="transition-all duration-300 ease-in-out delay-150"></path><defs><linearGradient id="gradient"><stop offset="5%" stop-color="#0693e3ff"></stop><stop offset="95%" stop-color="#8ed1fcff"></stop></linearGradient></defs><path d="M 0,400 C 0,400 0,266 0,266 C 55.92785984197869,278.0412229474407 111.85571968395737,290.08244589488146 192,284 C 272.1442803160426,277.91755410511854 376.5049811061491,253.7114393679148 449,263 C 521.4950188938509,272.2885606320852 562.1243558914463,315.0717966334593 627,312 C 691.8756441085537,308.9282033665407 780.9975953280659,260.001374098248 848,262 C 915.0024046719341,263.998625901752 959.8852627962901,316.92270697354866 1020,312 C 1080.1147372037099,307.07729302645134 1155.4613534867742,244.30779800755755 1228,227 C 1300.5386465132258,209.69220199244245 1370.269323256613,237.84610099622122 1440,266 C 1440,266 1440,400 1440,400 Z" stroke="none" stroke-width="0px" fill="url(&quot;#gradient&quot;)" class="transition-all duration-300 ease-in-out delay-150"></path></svg>