<svg xmlns="http://www.w3.org/2000/svg" xmlns:xlink="http://www.w3.org/1999/xlink" viewBox="0 0 841.89 208.17"><defs><style>.cls-1{isolation:isolate;}.cls-2,.cls-3{mix-blend-mode:multiply;}.cls-2{fill:url(#linear-gradient);}.cls-3{fill:url(#linear-gradient-2);}.cls-23,.cls-24,.cls-25,.cls-26,.cls-27,.cls-28,.cls-29,.cls-30,.cls-31,.cls-32,.cls-33,.cls-34,.cls-35,.cls-36,.cls-37,.cls-38,.cls-39,.cls-4,.cls-40,.cls-41,.cls-42,.cls-43,.cls-44,.cls-45,.cls-46,.cls-47,.cls-48,.cls-49,.cls-50,.cls-51,.cls-52,.cls-53{fill:#fff;}.cls-5{fill:#f5f4f4;}.cls-6{fill:#eeeded;}.cls-7{fill:#e8e6e6;}.cls-8{fill:#e1e0df;}.cls-9{fill:#dbdad9;}.cls-10{fill:#d5d3d3;}.cls-11{fill:#cfcdcd;}.cls-12{fill:#c9c8c7;}.cls-13{fill:#c4c2c2;}.cls-14{fill:#bebcbc;}.cls-15{fill:#b8b7b7;}.cls-16{fill:#b3b2b1;}.cls-17{fill:#aeacac;}.cls-18{fill:#a8a7a7;}.cls-19{fill:#a3a2a2;}.cls-20{fill:#9e9d9d;}.cls-21{fill:#999;}.cls-22{mix-blend-mode:screen;}.cls-23{opacity:0.97;}.cls-24{opacity:0.95;}.cls-25{opacity:0.92;}.cls-26{opacity:0.9;}.cls-27{opacity:0.87;}.cls-28{opacity:0.85;}.cls-29{opacity:0.82;}.cls-30{opacity:0.79;}.cls-31{opacity:0.77;}.cls-32{opacity:0.74;}.cls-33{opacity:0.72;}.cls-34{opacity:0.69;}.cls-35{opacity:0.66;}.cls-36{opacity:0.64;}.cls-37{opacity:0.61;}.cls-38{opacity:0.59;}.cls-39{opacity:0.56;}.cls-40{opacity:0.54;}.cls-41{opacity:0.51;}.cls-42{opacity:0.48;}.cls-43{opacity:0.46;}.cls-44{opacity:0.43;}.cls-45{opacity:0.41;}.cls-46{opacity:0.38;}.cls-47{opacity:0.35;}.cls-48{opacity:0.33;}.cls-49{opacity:0.3;}.cls-50{opacity:0.28;}.cls-51{opacity:0.25;}.cls-52{opacity:0.23;}.cls-53{opacity:0.2;}</style><linearGradient id="linear-gradient" x1="846" y1="484.31" x2="13" y2="484.31" gradientUnits="userSpaceOnUse"><stop offset="0.04" stop-color="#dedfe0"/><stop offset="0.1" stop-color="#c6c8c9"/><stop offset="0.18" stop-color="#acaeb0"/><stop offset="0.25" stop-color="#9d9ea1"/><stop offset="0.31" stop-color="#97999c"/><stop offset="0.71" stop-color="#e2e3e4"/><stop offset="0.97" stop-color="#d5d7d8"/></linearGradient><linearGradient id="linear-gradient-2" y1="470.79" x2="841.89" y2="470.79" gradientUnits="userSpaceOnUse"><stop offset="0.04" stop-color="#dadbdc"/><stop offset="0.09" stop-color="#d0d1d2"/><stop offset="0.17" stop-color="#b4b5b6"/><stop offset="0.28" stop-color="#87888a"/><stop offset="0.38" stop-color="#565759"/><stop offset="0.47" stop-color="#7f8082"/><stop offset="0.58" stop-color="#adafb0"/><stop offset="0.66" stop-color="#cacccd"/><stop offset="0.71" stop-color="#d5d7d8"/><stop offset="0.97" stop-color="#dedfe0"/></linearGradient></defs><title>waves-gradient-1</title><g class="cls-1"><g id="Wave_Pattern" data-name="Wave Pattern"><path class="cls-2" d="M841.89,474.69a325.33,325.33,0,0,0-51.23,7.13,325.37,325.37,0,0,1,51.23-7.61v-4A330.68,330.68,0,0,0,792,477.41a332.29,332.29,0,0,1,49.91-7.68v-4A335.77,335.77,0,0,0,793.32,473a337,337,0,0,1,48.57-7.73v-4a339.91,339.91,0,0,0-47.22,7.33,341.51,341.51,0,0,1,47.22-7.76v-4a344.81,344.81,0,0,0-45.82,7.35,348.11,348.11,0,0,1,45.82-7.77v-4a350.89,350.89,0,0,0-42.93,7A354.13,354.13,0,0,1,841.89,452v-4a359.94,359.94,0,0,0-40.72,6.81,361,361,0,0,1,40.72-7.18v-4a363.28,363.28,0,0,0-39.35,6.77,369.48,369.48,0,0,1,39.35-7.15v-4a370.67,370.67,0,0,0-38,6.74,373.83,373.83,0,0,1,38-7.08v-4c-11.92,1.57-24.13,3.76-36.58,6.68,12.46-3,24.67-5.33,36.58-7v-4c-11.47,1.6-23.22,3.77-35.18,6.6,12-2.93,23.71-5.21,35.18-6.92V426q-16.1,2.37-32.85,6.3,16.74-4.09,32.85-6.61v-4q-14.83,2.29-30.23,5.9,15.39-3.75,30.23-6.18v-4q-14.05,2.28-28.61,5.72c9.7-2.39,19.25-4.36,28.61-6V413q-13.36,2.28-27.19,5.57,13.83-3.44,27.19-5.81v-4.07q-12.67,2.25-25.75,5.41,13.1-3.28,25.75-5.64v-4.07q-11.48,2.13-23.29,5,11.8-3,23.29-5.2v-4.08c-38,7.31-79,20.64-121.06,40.33-68.36,32-133.72,47.78-204.74,47.79-48.51,0-99.68-7.4-156.23-22.14q-77.92-20.33-154.42-20.39a554.86,554.86,0,0,0-135,16.58A572.8,572.8,0,0,0,0,484.87v34.52a619.25,619.25,0,0,1,59.77-18.62c40.4-10.32,81.18-16,121.7-16,57.27,0,114,11.41,168.62,37.39,66.46,31.65,124,46.36,178.44,46.36h0a311.64,311.64,0,0,0,89.11-13.24c29.43-8.69,58.92-21.51,89.52-38A323.08,323.08,0,0,1,841.89,478.7ZM616.51,551.4a307.7,307.7,0,0,1-88,13.08c-29,0-59-4.24-90.81-13.09a362.86,362.86,0,0,0,66.88,11.67q12.45.95,24.65.9h0a317.19,317.19,0,0,0,89.14-13.29q8.7-2.55,17.42-5.57Q626.16,548.54,616.51,551.4Zm.88-4.59a313.26,313.26,0,0,1-88,13.14q-13.23,0-26.75-1.07A360.1,360.1,0,0,1,438.7,547.5a370.09,370.09,0,0,0,66.62,11.14q12.45.87,24.66.8h0a323.42,323.42,0,0,0,89.18-13.33q10.1-2.94,20.22-6.51Q628.38,543.58,617.39,546.81Zm.88-4.59a319.77,319.77,0,0,1-88,13.2q-13.25.09-26.75-.95a367.08,367.08,0,0,1-63.81-10.87A375.4,375.4,0,0,0,506,554.21q12.45.82,24.67.71h0a329.3,329.3,0,0,0,89.21-13.36q10.38-3,20.77-6.65Q629.46,539,618.27,542.22Zm.87-4.59a325.7,325.7,0,0,1-88.06,13.26q-13.25.14-26.76-.84a374.51,374.51,0,0,1-63.69-10.35,384.3,384.3,0,0,0,66.13,10.09q12.45.75,24.68.6h0A336,336,0,0,0,620.71,537q10.65-3.06,21.32-6.79Q630.57,534.31,619.14,537.63ZM620,533a332.31,332.31,0,0,1-88.09,13.32q-13.24.18-26.77-.72a381.34,381.34,0,0,1-63.65-9.87,391.75,391.75,0,0,0,66,9.59q12.46.71,24.69.51h0a343.27,343.27,0,0,0,89.29-13.44q10.93-3.12,21.87-6.92Q631.66,529.68,620,533Zm.87-4.59a338.7,338.7,0,0,1-88.11,13.38q-13.26.23-26.78-.61a389.27,389.27,0,0,1-63.65-9.4,399.18,399.18,0,0,0,65.84,9.11q12.46.65,24.7.42h0a349.88,349.88,0,0,0,89.32-13.48q11.19-3.17,22.37-7Q632.72,525.05,620.89,528.45Zm.88-4.6a345.42,345.42,0,0,1-88.14,13.45q-13.26.27-26.79-.49a398.27,398.27,0,0,1-63.77-9,409,409,0,0,0,65.84,8.66q12.46.59,24.71.32h0A356.44,356.44,0,0,0,623,523.3q12.11-3.39,24.22-7.61C638.72,518.71,630.24,521.45,621.77,523.85Zm.88-4.59a352.84,352.84,0,0,1-88.17,13.51q-13.26.32-26.8-.38a406.31,406.31,0,0,1-64-8.53,417.75,417.75,0,0,0,65.91,8.22q12.47.52,24.71.22h0a364.1,364.1,0,0,0,89.39-13.56q12.94-3.6,25.89-8.13Q636.12,515.46,622.65,519.26Zm.87-4.59a360.36,360.36,0,0,1-88.19,13.57q-13.27.36-26.81-.26a417.52,417.52,0,0,1-65.29-8.35,429.75,429.75,0,0,0,67.12,8q12.46.47,24.72.12h0a372.75,372.75,0,0,0,89.43-13.6q13.38-3.69,26.76-8.36Q637.39,510.77,623.52,514.67Zm.88-4.59a368,368,0,0,1-88.22,13.63q-13.27.42-26.82-.15a426.59,426.59,0,0,1-64.89-7.8,438.59,438.59,0,0,0,66.6,7.47q12.46.4,24.73,0h0a381.11,381.11,0,0,0,89.46-13.64q13.61-3.74,27.21-8.45Q638.43,506.17,624.4,510.08Zm.87-4.59A376.24,376.24,0,0,1,537,519.18q-13.28.47-26.82,0a435.9,435.9,0,0,1-65.29-7.42,447.78,447.78,0,0,0,66.86,7.07q12.5.36,24.74-.07h0a388.92,388.92,0,0,0,89.5-13.67q13.8-3.76,27.61-8.51Q639.45,501.56,625.27,505.49Zm.88-4.59a385,385,0,0,1-88.27,13.75q-13.29.51-26.83.09a447.91,447.91,0,0,1-65.92-7.07,460.93,460.93,0,0,0,67.37,6.71q12.5.29,24.75-.17h0a397.38,397.38,0,0,0,89.53-13.72q14-3.76,28-8.55Q640.44,497,626.15,500.9Zm.88-4.59a394.28,394.28,0,0,1-88.3,13.81q-13.29.56-26.84.2a458.82,458.82,0,0,1-66.56-6.71A473.12,473.12,0,0,0,513.22,510q12.49.24,24.76-.26h0a407.45,407.45,0,0,0,89.56-13.76q14.19-3.8,28.35-8.6Q641.47,492.36,627,496.31Zm.87-4.59a403.12,403.12,0,0,1-88.32,13.87q-13.29.6-26.85.32a472.19,472.19,0,0,1-67.35-6.38,488.08,488.08,0,0,0,68.56,6q12.49.17,24.76-.36h0a417,417,0,0,0,89.6-13.79q14.63-3.89,29.23-8.83Q642.73,487.69,627.9,491.72Zm.88-4.6a411.94,411.94,0,0,1-88.34,13.94q-13.32.65-26.87.43a484.57,484.57,0,0,1-68.25-6.05,499,499,0,0,0,69.34,5.66q12.5.12,24.77-.46h.05a427.4,427.4,0,0,0,89.63-13.83q15.07-4,30.13-9.06Q644,483,628.78,487.12Zm.87-4.59a422.34,422.34,0,0,1-88.36,14q-13.32.69-26.88.55a498.66,498.66,0,0,1-69.35-5.74,514.66,514.66,0,0,0,70.32,5.33q12.5.06,24.78-.55h.05a437.75,437.75,0,0,0,89.67-13.87q15.48-4.06,30.92-9.25Q645.21,478.36,629.65,482.53Zm.88-4.59A433.35,433.35,0,0,1,542.14,492q-13.32.74-26.89.66a513.27,513.27,0,0,1-70.47-5.41,532.66,532.66,0,0,0,71.31,5,454.23,454.23,0,0,0,146.38-24Q646.5,473.69,630.53,477.94Z" transform="translate(0 -367.2)"/><path class="cls-3" d="M841.89,527.79C726.62,540.34,611.61,513,499.74,448.49,370.91,374.15,266.68,353.23,148,375.86,94.48,386.07,44,387,0,380.22V549.59c41.76-1.87,87.57-11.12,134.66-28.62,113.24-42.08,219.49-38.8,358.9,13.06C613.81,578.75,731,586.71,841.89,555.88Z" transform="translate(0 -367.2)"/><path class="cls-4" d="M841.89,476.44A325.4,325.4,0,0,0,706.1,515.23c-61,32.93-117.39,51-177.57,51-54.08,0-111.22-14.59-177.48-46.14-54.9-26.14-112-37.61-169.58-37.61C120.8,482.48,59.62,495.23,0,517v.53C59.63,495.74,120.81,483,181.47,483,239,483,296,494.44,350.84,520.54c66.31,31.57,123.52,46.19,177.69,46.19,60.28,0,116.77-18.11,177.8-51.06a324.87,324.87,0,0,1,135.56-38.73Z" transform="translate(0 -367.2)"/><path class="cls-5" d="M841.89,472A331.06,331.06,0,0,0,707,510.88C645.56,543.76,588.62,561.7,527.8,561.7,474,561.7,417.25,547.53,351.56,517c-54.73-25.39-111.51-36.6-168.68-36.6C121.66,480.37,60,493.14,0,515.17v.63C60.05,493.74,121.67,481,182.88,481c57.1,0,113.8,11.19,168.44,36.55,65.75,30.59,122.62,44.78,176.48,44.78,60.94,0,118-18,179.46-50.89a330.36,330.36,0,0,1,134.63-38.79Z" transform="translate(0 -367.2)"/><path class="cls-6" d="M841.89,467.59a337,337,0,0,0-134,39C646,539.36,588.54,557.17,527.06,557.18c-53.43,0-109.87-13.75-175-43.33-54.55-24.65-111-35.58-167.77-35.58-61.77,0-123.83,12.78-184.29,35.07v.73C60.47,491.74,122.53,479,184.29,479c56.69,0,113.06,10.91,167.52,35.53,65.18,29.6,121.72,43.37,175.25,43.37,61.6,0,119.2-17.85,181.13-50.71a336.28,336.28,0,0,1,133.7-38.87Z" transform="translate(0 -367.2)"/><path class="cls-7" d="M841.89,463.16a343.71,343.71,0,0,0-133.12,39C646.46,535,588.45,552.65,526.33,552.65c-53.11,0-109.21-13.33-173.77-41.91-54.36-23.92-110.48-34.57-166.86-34.57C123.39,476.17,60.88,489,0,511.52v.81c60.89-22.59,123.4-35.4,185.7-35.4,56.29,0,112.31,10.64,166.6,34.52,64.62,28.61,120.81,42,174,42,62.26,0,120.4-17.73,182.78-50.54a343,343,0,0,1,132.78-38.94Z" transform="translate(0 -367.2)"/><path class="cls-8" d="M841.89,458.73a350.53,350.53,0,0,0-132.23,39.12c-62.75,32.71-121.29,50.27-184.06,50.27-52.79,0-108.54-12.9-172.53-40.5-54.19-23.17-110-33.56-166-33.56C124.25,474.06,61.3,486.87,0,509.69v.91c61.31-22.86,124.26-35.68,187.11-35.68,55.89,0,111.57,10.36,165.67,33.5C416.84,536,472.69,549,525.6,549c62.92,0,121.61-17.6,184.44-50.36a349.78,349.78,0,0,1,131.85-39Z" transform="translate(0 -367.2)"/><path class="cls-9" d="M841.89,454.3a358.14,358.14,0,0,0-131.34,39.2c-63.18,32.66-122.27,50.09-185.68,50.09-52.47,0-107.88-12.48-171.3-39.09-54-22.43-109.47-32.54-165-32.54C125.11,472,61.72,484.78,0,507.87v1c61.73-23.13,125.12-36,188.52-36,55.48,0,110.83,10.09,164.75,32.49,63.49,26.63,119,39.14,171.6,39.14,63.57,0,122.82-17.48,186.1-50.18a357.09,357.09,0,0,1,130.92-39.1Z" transform="translate(0 -367.2)"/><path class="cls-10" d="M841.89,449.87a366.17,366.17,0,0,0-130.44,39.29c-63.63,32.6-123.25,49.9-187.31,49.9-52.15,0-107.16-12.19-170.07-37.68-53.79-21.8-109-31.52-164.14-31.52C126,469.86,62.14,482.69,0,506v1.1c62.15-23.4,126-36.25,189.93-36.25a435,435,0,0,1,163.83,31.47c62.93,25.65,118.1,37.73,170.38,37.73,64.23,0,124-17.35,187.76-50a365.13,365.13,0,0,1,130-39.17Z" transform="translate(0 -367.2)"/><path class="cls-11" d="M841.89,445.44a374.84,374.84,0,0,0-129.55,39.37c-64.07,32.56-124.23,49.72-188.93,49.72-51.83,0-106.49-11.77-168.83-36.27C301,477.2,246.13,467.75,191.34,467.75c-64.5,0-128.78,12.85-191.34,36.46v1.2c62.57-23.67,126.84-36.54,191.34-36.54,54.67,0,109.39,9.43,162.9,30.46,62.42,24.52,117.2,36.32,169.17,36.32,64.89,0,125.24-17.22,189.41-49.83a373.73,373.73,0,0,1,129.07-39.25Z" transform="translate(0 -367.2)"/><path class="cls-12" d="M841.89,441c-40.36,4.76-84.39,17-128.66,39.46C648.72,513,588,530,522.68,530c-51.51,0-105.82-11.35-167.6-34.86a453.48,453.48,0,0,0-162.33-29.49C127.7,465.65,63,478.51,0,502.39v1.29c63-23.94,127.7-36.82,192.75-36.82a452.71,452.71,0,0,1,162,29.43c61.86,23.54,116.29,34.92,167.95,34.92,65.54,0,126.44-17.1,191.07-49.66,44.1-22.4,88-34.56,128.14-39.31Z" transform="translate(0 -367.2)"/><path class="cls-13" d="M841.89,436.58c-40.08,5.05-83.75,17.38-127.77,39.54-65,32.45-126.18,49.35-192.18,49.35-51.18,0-105.15-10.93-166.36-33.44a464.72,464.72,0,0,0-161.42-28.48c-65.59,0-130.76,12.87-194.16,37V502c63.41-24.21,128.57-37.11,194.16-37.11a463.68,463.68,0,0,1,161.06,28.42c61.29,22.55,115.39,33.51,166.72,33.51,66.21,0,127.66-17,192.74-49.48,43.83-22.08,87.31-34.36,127.21-39.39Z" transform="translate(0 -367.2)"/><path class="cls-14" d="M841.89,432.15c-39.81,5.33-83.12,17.78-126.88,39.63C649.63,504.17,587.86,521,521.21,521c-50.86,0-104.49-10.51-165.12-32a477,477,0,0,0-160.52-27.47c-66.14,0-131.75,12.89-195.57,37.29v1.48c63.83-24.47,129.43-37.38,195.57-37.38a476,476,0,0,1,160.13,27.4c60.73,21.56,114.49,32.1,165.51,32.1,66.87,0,128.87-16.85,194.4-49.31,43.56-21.75,86.67-34.15,126.28-39.46Z" transform="translate(0 -367.2)"/><path class="cls-15" d="M841.89,427.72c-39.53,5.61-82.49,18.18-126,39.71-65.82,32.34-128.13,49-195.42,49-50.54,0-103.83-10.08-163.89-30.63A490.61,490.61,0,0,0,197,459.34c-66.69,0-132.74,12.9-197,37.57v1.57c64.25-24.74,130.29-37.67,197-37.67A489.33,489.33,0,0,1,356.19,487.2c60.16,20.58,113.58,30.69,164.29,30.69,67.52,0,130.08-16.72,196-49.13,43.3-21.43,86-33.94,125.36-39.54Z" transform="translate(0 -367.2)"/><path class="cls-16" d="M841.89,423.29c-39.25,5.9-81.85,18.59-125.1,39.8-66.26,32.28-129.1,48.8-197,48.8-50.22,0-103.16-9.65-162.66-29.22a505.44,505.44,0,0,0-158.7-25.43c-67.24,0-133.73,12.9-198.39,37.84v1.67c64.67-25,131.15-37.95,198.39-37.95a504.14,504.14,0,0,1,158.29,25.37c59.59,19.6,112.68,29.28,163.07,29.28,68.18,0,131.29-16.59,197.71-49,43-21.11,85.4-33.74,124.43-39.62Z" transform="translate(0 -367.2)"/><path class="cls-17" d="M841.89,418.86c-39,6.18-81.22,19-124.2,39.88C651,491,587.6,507.36,519,507.36c-49.9,0-102.54-9.1-161.42-27.81a525.49,525.49,0,0,0-157.8-24.42C132,455.13,65.08,468.05,0,493.25V495c65.09-25.28,132-38.24,199.8-38.24a523.58,523.58,0,0,1,157.36,24.36C416.15,499.88,468.94,509,519,509c68.84,0,132.49-16.47,199.37-48.78,42.75-20.78,84.76-33.53,123.5-39.69Z" transform="translate(0 -367.2)"/><path class="cls-18" d="M841.89,414.44c-38.7,6.45-80.59,19.38-123.31,40-67.15,32.17-131.06,48.43-200.29,48.43-49.58,0-101.87-8.67-160.19-26.4A543.34,543.34,0,0,0,201.21,453C132.88,453,65.5,466,0,491.43v1.86c65.51-25.55,132.88-38.52,201.21-38.52a541.43,541.43,0,0,1,156.44,23.34c58.42,17.75,110.87,26.46,160.64,26.46,69.49,0,133.7-16.34,201-48.6,42.49-20.47,84.13-33.33,122.58-39.77Z" transform="translate(0 -367.2)"/><path class="cls-19" d="M841.89,410c-38.42,6.74-80,19.79-122.42,40-67.59,32.12-132,48.25-201.91,48.25-49.26,0-101.21-8.25-159-25a562.71,562.71,0,0,0-156-22.39c-68.88,0-136.7,12.94-202.62,38.67v2c65.93-25.83,133.74-38.81,202.62-38.81a561.12,561.12,0,0,1,155.52,22.33c57.86,16.76,110,25.05,159.42,25.05,70.15,0,134.91-16.21,202.68-48.43,42.21-20.14,83.49-33.11,121.65-39.84Z" transform="translate(0 -367.2)"/><path class="cls-20" d="M841.89,405.58c-38.14,7-79.32,20.19-121.53,40.13-68,32.06-133,48.06-203.53,48.06-48.94,0-100.54-7.83-157.72-23.57C307.05,455.93,255.24,448.82,204,448.82c-69.42,0-137.69,13-204,38.95v2.06c66.35-26.1,134.6-39.1,204-39.1,51,0,102.68,7.09,154.59,21.31,57.3,15.78,109.07,23.65,158.21,23.65,70.81,0,136.12-16.09,204.34-48.25,41.94-19.82,82.85-32.91,120.72-39.91Z" transform="translate(0 -367.2)"/><path class="cls-21" d="M841.89,401.15c-37.86,7.3-78.69,20.59-120.64,40.21-68.46,32-134,47.88-205.16,47.89-48.61,0-99.87-7.41-156.48-22.17q-77.82-20.29-154.17-20.36A557.34,557.34,0,0,0,0,486v2.14a555.47,555.47,0,0,1,205.44-39.37q75.94,0,153.67,20.29c56.73,14.8,108.16,22.24,157,22.24,71.47,0,137.34-16,206-48.08,41.67-19.49,82.21-32.7,119.79-40Z" transform="translate(0 -367.2)"/><g class="cls-22"><path class="cls-4" d="M787.2,530.77c-96.81,0-193.12-27.91-287.22-82.21C403.65,393,321,367.21,235.81,367.21a467.2,467.2,0,0,0-87.88,8.66,477,477,0,0,1-89.09,8.7A386.8,386.8,0,0,1,0,380.22v1a388.34,388.34,0,0,0,58.84,4.33,477.88,477.88,0,0,0,89.27-8.71,466.23,466.23,0,0,1,87.7-8.65c85,0,167.44,25.69,263.69,81.23,94.22,54.37,190.7,82.34,287.7,82.34a506.43,506.43,0,0,0,54.69-3v-1A503.88,503.88,0,0,1,787.2,530.77Z" transform="translate(0 -367.2)"/><path class="cls-23" d="M499.78,451.32C404.11,396.61,322,371.23,237.53,371.23c-29.57,0-59.32,3.23-90,9.32a470.33,470.33,0,0,1-88.8,9.14,388.72,388.72,0,0,1-58.69-4v1a390.24,390.24,0,0,0,58.69,4,472.34,472.34,0,0,0,89-9.16,459.8,459.8,0,0,1,89.85-9.3c84.27,0,166.19,25.3,261.77,80,93.51,53.48,189.17,81,285.26,81a474.79,474.79,0,0,0,57.33-3.49v-1a472.76,472.76,0,0,1-57.33,3.49C688.65,532.18,593.17,504.73,499.78,451.32Z" transform="translate(0 -367.2)"/><path class="cls-24" d="M499.58,454.07c-95-53.82-176.58-78.81-260.33-78.81-30.33,0-60.76,3.51-92.19,10a465.61,465.61,0,0,1-88.53,9.58A387.9,387.9,0,0,1,0,391.15v1a389.46,389.46,0,0,0,58.54,3.65,466.7,466.7,0,0,0,88.71-9.6c31.38-6.45,61.73-9.95,92-9.95,83.55,0,164.93,24.92,259.86,78.69,92.79,52.59,187.62,79.64,282.82,79.64a453,453,0,0,0,60-4v-1a453,453,0,0,1-60,4C686.91,533.59,592.25,506.6,499.58,454.07Z" transform="translate(0 -367.2)"/><path class="cls-25" d="M499.37,456.83C405,403.89,324,379.28,241,379.28c-31.1,0-62.2,3.8-94.34,10.63a460.23,460.23,0,0,1-88.25,10A387.14,387.14,0,0,1,0,396.61v1a388.63,388.63,0,0,0,58.38,3.31,461.32,461.32,0,0,0,88.44-10c32.09-6.82,63.12-10.61,94.15-10.61,82.83,0,163.68,24.54,257.94,77.43C591,509.37,685,536,779.29,536a439.22,439.22,0,0,0,62.6-4.48v-1a437.78,437.78,0,0,1-62.6,4.49C685.17,535,591.33,508.46,499.37,456.83Z" transform="translate(0 -367.2)"/><path class="cls-26" d="M499.17,459.59C405.49,407.53,325,383.31,242.69,383.31c-31.87,0-63.64,4.07-96.5,11.29a457.9,457.9,0,0,1-88,10.46,390.3,390.3,0,0,1-58.22-3v1a389.2,389.2,0,0,0,58.23,3,458.23,458.23,0,0,0,88.16-10.49c32.81-7.2,64.5-11.26,96.3-11.26,82.11,0,162.42,24.15,256,76.16,91.36,50.81,184.54,76.93,277.94,76.93a429.53,429.53,0,0,0,65.24-5v-1a428.26,428.26,0,0,1-65.24,5C683.43,536.4,590.41,510.33,499.17,459.59Z" transform="translate(0 -367.2)"/><path class="cls-27" d="M499,462.35c-93-51.18-173-75-254.56-75-32.64,0-65.08,4.34-98.65,11.95a454.09,454.09,0,0,1-87.69,10.9A388.23,388.23,0,0,1,0,407.54v1a389.8,389.8,0,0,0,58.08,2.63A454.62,454.62,0,0,0,146,400.21c33.51-7.59,65.88-11.91,98.44-11.91,81.39,0,161.16,23.77,254.11,74.89,90.64,49.92,183,75.58,275.5,75.58a421.82,421.82,0,0,0,67.87-5.49v-1a420.69,420.69,0,0,1-67.87,5.5C681.69,537.81,589.5,512.2,499,462.35Z" transform="translate(0 -367.2)"/><path class="cls-28" d="M498.77,465.1C406.41,414.81,327,391.36,246.14,391.36c-33.42,0-66.52,4.61-100.81,12.6A450.42,450.42,0,0,1,57.91,415.3,388.83,388.83,0,0,1,0,413v1a390.44,390.44,0,0,0,57.92,2.28,451.59,451.59,0,0,0,87.62-11.36c34.23-8,67.26-12.58,100.6-12.58,80.65,0,159.9,23.39,252.18,73.63,89.92,49,181.45,74.23,273.06,74.23a416.64,416.64,0,0,0,70.51-6v-1a416.64,416.64,0,0,1-70.51,6C680,539.21,588.58,514.07,498.77,465.1Z" transform="translate(0 -367.2)"/><path class="cls-29" d="M498.57,467.86c-91.7-49.41-170.59-72.48-250.71-72.48-34.19,0-68,4.87-103,13.26a448.9,448.9,0,0,1-87.13,11.78A389.5,389.5,0,0,1,0,418.47v1a391,391,0,0,0,57.77,1.95,449.42,449.42,0,0,0,87.34-11.81c34.94-8.38,68.64-13.23,102.75-13.23,79.93,0,158.64,23,250.26,72.36,89.21,48.14,179.92,72.88,270.62,72.88a414.31,414.31,0,0,0,73.15-6.49v-1a413.38,413.38,0,0,1-73.15,6.5C678.21,540.62,587.66,515.94,498.57,467.86Z" transform="translate(0 -367.2)"/><path class="cls-30" d="M498.37,470.62c-91-48.53-169.4-71.21-248.79-71.21-35,0-69.4,5.13-105.12,13.91A446,446,0,0,1,57.6,425.54,388.71,388.71,0,0,1,0,423.93v1a390.29,390.29,0,0,0,57.61,1.6,447.33,447.33,0,0,0,87.07-12.25c35.65-8.77,70-13.88,104.9-13.88,79.21,0,157.39,22.62,248.34,71.09C586.41,518.72,676.3,543,766.11,543a413.3,413.3,0,0,0,75.78-7v-1a412.44,412.44,0,0,1-75.78,7C676.47,542,586.74,517.81,498.37,470.62Z" transform="translate(0 -367.2)"/><path class="cls-31" d="M498.17,473.38C407.79,425.74,330,403.43,251.3,403.43c-35.72,0-70.85,5.38-107.28,14.57a444.51,444.51,0,0,1-86.58,12.66A389.29,389.29,0,0,1,0,429.39v1a391,391,0,0,0,57.46,1.26,445.14,445.14,0,0,0,86.79-12.69c36.37-9.17,71.41-14.54,107.05-14.54,78.49,0,156.13,22.24,246.43,69.83,87.77,46.36,176.83,70.17,265.74,70.17a412.61,412.61,0,0,0,78.42-7.49v-1a411.81,411.81,0,0,1-78.42,7.5C674.73,543.43,585.83,519.67,498.17,473.38Z" transform="translate(0 -367.2)"/><path class="cls-32" d="M498,476.13C408.25,429.38,331,407.46,253,407.46c-36.49,0-72.29,5.63-109.43,15.22a443.37,443.37,0,0,1-86.3,13.11A391.39,391.39,0,0,1,0,434.86v1a391.69,391.69,0,0,0,57.31.93,444.52,444.52,0,0,0,86.51-13.14C180.9,414,216.61,408.43,253,408.43c77.76,0,154.88,21.86,244.51,68.57,87.06,45.46,175.29,68.81,263.3,68.81a413.59,413.59,0,0,0,81.06-8v-1a412.83,412.83,0,0,1-81.06,8C673,544.84,584.91,521.54,498,476.13Z" transform="translate(0 -367.2)"/><path class="cls-33" d="M497.76,478.89c-89.05-45.87-165.8-67.41-243-67.41-37.26,0-73.73,5.88-111.58,15.88a441.94,441.94,0,0,1-86,13.55A392,392,0,0,1,0,440.32v1a391,391,0,0,0,57.15.58A443.42,443.42,0,0,0,143.4,428.3c37.78-10,74.17-15.85,111.34-15.85,77,0,153.62,21.48,242.59,67.31,86.34,44.58,173.75,67.46,260.86,67.46a414.64,414.64,0,0,0,83.7-8.49v-1a413.93,413.93,0,0,1-83.7,8.5C671.25,546.24,584,523.41,497.76,478.89Z" transform="translate(0 -367.2)"/><path class="cls-34" d="M497.56,481.65c-88.39-45-164.6-66.14-241.09-66.14-38,0-75.19,6.11-113.75,16.53A442.08,442.08,0,0,1,57,446a390,390,0,0,1-57-.25v1A390.31,390.31,0,0,0,57,447a442.14,442.14,0,0,0,86-14c38.49-10.4,75.55-16.5,113.5-16.5,76.31,0,152.36,21.09,240.67,66,85.62,43.69,172.2,66.1,258.42,66.1a417,417,0,0,0,86.33-9v-1a416.28,416.28,0,0,1-86.33,9C669.51,547.65,583.08,525.28,497.56,481.65Z" transform="translate(0 -367.2)"/><path class="cls-35" d="M497.36,484.4C409.63,440.3,334,419.53,258.19,419.53c-38.8,0-76.63,6.35-115.9,17.19a441.67,441.67,0,0,1-85.47,14.43A389.21,389.21,0,0,1,0,451.24v1a393.92,393.92,0,0,0,56.85-.1,442.43,442.43,0,0,0,85.69-14.47c39.2-10.82,76.94-17.15,115.65-17.15,75.59,0,151.1,20.71,238.75,64.77,84.9,42.8,170.67,64.75,256,64.75a419.29,419.29,0,0,0,89-9.49v-1a418.59,418.59,0,0,1-89,9.51C667.77,549.06,582.16,527.15,497.36,484.4Z" transform="translate(0 -367.2)"/><path class="cls-36" d="M497.16,487.16c-87.07-43.22-162.21-63.6-237.25-63.6-39.57,0-78.08,6.58-118,17.85a441.9,441.9,0,0,1-85.19,14.86A391.47,391.47,0,0,1,0,456.71v1a391.73,391.73,0,0,0,56.69-.44,442.53,442.53,0,0,0,85.42-14.91c39.91-11.25,78.32-17.81,117.8-17.81,74.86,0,149.84,20.33,236.83,63.51,84.19,41.91,169.13,63.4,253.54,63.4a422.66,422.66,0,0,0,91.61-10v-1a422,422,0,0,1-91.61,10C666,550.46,581.24,529,497.16,487.16Z" transform="translate(0 -367.2)"/><path class="cls-37" d="M497,489.92c-86.41-42.34-161-62.34-235.33-62.34-40.34,0-79.52,6.81-120.21,18.51a441.14,441.14,0,0,1-84.91,15.3A390.72,390.72,0,0,1,0,462.17v1a391.1,391.1,0,0,0,56.54-.78A442,442,0,0,0,141.68,447c40.61-11.68,79.7-18.46,120-18.46,74.14,0,148.59,19.94,234.91,62.24,83.48,41,167.59,62.05,251.11,62.05a425.65,425.65,0,0,0,94.24-10.49v-1a425.07,425.07,0,0,1-94.24,10.51C664.29,551.87,580.32,530.89,497,489.92Z" transform="translate(0 -367.2)"/><path class="cls-38" d="M496.76,492.68C411,451.22,336.94,431.61,263.35,431.61c-41.11,0-81,7-122.36,19.16a442.49,442.49,0,0,1-84.64,15.75A392.81,392.81,0,0,1,0,467.63v1a394.67,394.67,0,0,0,56.38-1.12,444.2,444.2,0,0,0,84.88-15.79c41.31-12.12,81.08-19.12,122.09-19.12,73.42,0,147.33,19.56,233,61,82.75,40.13,166,60.69,248.66,60.69a429.71,429.71,0,0,0,96.88-11v-1a429.17,429.17,0,0,1-96.88,11C662.55,553.28,579.41,532.75,496.76,492.68Z" transform="translate(0 -367.2)"/><path class="cls-39" d="M496.56,495.43c-85.08-40.57-158.62-59.8-231.49-59.8-41.88,0-82.42,7.24-124.51,19.82A443.73,443.73,0,0,1,56.2,471.64,393.74,393.74,0,0,1,0,473.1v1a394.08,394.08,0,0,0,56.23-1.46,444.37,444.37,0,0,0,84.6-16.23c42-12.56,82.46-19.78,124.24-19.78,72.7,0,146.08,19.18,231.08,59.71,82,39.24,164.5,59.34,246.22,59.34a433.52,433.52,0,0,0,99.52-11.49v-1a433,433,0,0,1-99.52,11.51C660.81,554.68,578.49,534.62,496.56,495.43Z" transform="translate(0 -367.2)"/><path class="cls-40" d="M496.35,498.19c-84.41-39.69-157.42-58.53-229.55-58.53-42.66,0-83.89,7.45-126.68,20.47A444.56,444.56,0,0,1,56,476.76a393,393,0,0,1-56,1.8v1a393.56,393.56,0,0,0,56.08-1.81,444.85,444.85,0,0,0,84.32-16.67c42.71-13,83.85-20.43,126.4-20.43,72,0,144.81,18.8,229.15,58.44,81.32,38.35,163,58,243.79,58a438.1,438.1,0,0,0,102.15-12v-1a437.06,437.06,0,0,1-102.15,12C659.07,556.09,577.57,536.49,496.35,498.19Z" transform="translate(0 -367.2)"/><path class="cls-41" d="M496.15,501c-83.75-38.8-156.22-57.27-227.63-57.27-43.42,0-85.34,7.66-128.83,21.13a445.07,445.07,0,0,1-83.8,17.07A392.4,392.4,0,0,1,0,484v1a394.19,394.19,0,0,0,55.92-2.14A446.77,446.77,0,0,0,140,465.75c43.41-13.45,85.23-21.08,128.55-21.08,71.24,0,143.56,18.41,227.24,57.17,80.6,37.46,161.42,56.64,241.34,56.64A442.39,442.39,0,0,0,841.89,546v-1A441.89,441.89,0,0,1,737.1,557.49C657.33,557.49,576.65,538.36,496.15,501Z" transform="translate(0 -367.2)"/><path class="cls-42" d="M496,503.71c-83.09-37.92-155-56-225.71-56-44.19,0-86.8,7.86-131,21.78A446.25,446.25,0,0,1,55.73,487,393.19,393.19,0,0,1,0,489.49v1A396.68,396.68,0,0,0,55.77,488a447.94,447.94,0,0,0,83.77-17.56c44.11-13.9,86.61-21.74,130.7-21.74,70.52,0,142.3,18,225.32,55.91,79.89,36.57,159.88,55.29,238.9,55.29a447.4,447.4,0,0,0,107.43-13v-1a446.37,446.37,0,0,1-107.43,13C655.59,558.9,575.74,540.23,496,503.71Z" transform="translate(0 -367.2)"/><path class="cls-43" d="M495.75,506.46c-82.43-37-153.83-54.73-223.79-54.73-45,0-88.25,8.06-133.14,22.44a447.45,447.45,0,0,1-83.24,17.95A394.16,394.16,0,0,1,0,495v1a394.64,394.64,0,0,0,55.62-2.83,449.31,449.31,0,0,0,83.49-18c44.81-14.36,88-22.39,132.85-22.39,69.8,0,141.05,17.65,223.4,54.64C574.53,543,653.7,561.29,731.83,561.29A452,452,0,0,0,841.89,547.8v-1a451.55,451.55,0,0,1-110.06,13.52C653.85,560.31,574.82,542.1,495.75,506.46Z" transform="translate(0 -367.2)"/><path class="cls-44" d="M495.55,509.22c-81.77-36.15-152.63-53.46-221.87-53.46C228,455.76,184,464,138.39,478.85a451.46,451.46,0,0,1-83,18.4A394.88,394.88,0,0,1,0,500.41v1a395.35,395.35,0,0,0,55.46-3.16,451.61,451.61,0,0,0,83.23-18.45c45.49-14.82,89.37-23,135-23,69.07,0,139.79,17.26,221.48,53.38,78.46,34.79,156.8,52.57,234,52.57a457.34,457.34,0,0,0,112.7-14v-1a456.42,456.42,0,0,1-112.7,14C652.11,561.71,573.9,544,495.55,509.22Z" transform="translate(0 -367.2)"/><path class="cls-45" d="M495.35,512c-81.11-35.27-151.44-52.19-220-52.19-46.5,0-91.17,8.43-137.45,23.75a453.53,453.53,0,0,1-82.69,18.83A395.63,395.63,0,0,1,0,505.88v1a396.32,396.32,0,0,0,55.31-3.51,454.07,454.07,0,0,0,82.95-18.89c46.19-15.28,90.75-23.7,137.14-23.7,68.35,0,138.53,16.88,219.57,52.12,77.73,33.9,155.25,51.22,231.58,51.22a462.34,462.34,0,0,0,115.34-14.49v-1a461.38,461.38,0,0,1-115.34,14.52C650.37,563.12,573,545.83,495.35,512Z" transform="translate(0 -367.2)"/><path class="cls-46" d="M495.15,514.74c-80.45-34.39-150.24-50.93-218-50.93-47.26,0-92.64,8.62-139.6,24.41a455.69,455.69,0,0,1-82.41,19.27A396.66,396.66,0,0,1,0,511.34v1a395.58,395.58,0,0,0,55.15-3.85,455.3,455.3,0,0,0,82.68-19.33C184.71,473.4,230,464.8,277.12,464.8c67.63,0,137.28,16.5,217.65,50.85,77,33,153.71,49.87,229.15,49.87a467.91,467.91,0,0,0,118-15v-1a466.53,466.53,0,0,1-118,15C648.63,564.53,572.07,547.7,495.15,514.74Z" transform="translate(0 -367.2)"/><path class="cls-47" d="M495,517.49c-79.79-33.5-149-49.65-216.1-49.65-48,0-94.11,8.8-141.76,25.06A458.21,458.21,0,0,1,55,512.61,394.39,394.39,0,0,1,0,516.8v1a398.17,398.17,0,0,0,55-4.19,458.59,458.59,0,0,0,82.4-19.78c47.57-16.23,93.52-25,141.45-25,66.9,0,136,16.11,215.72,49.58,76.31,32.12,152.18,48.51,226.71,48.51a473.16,473.16,0,0,0,120.61-15.49v-1a472.24,472.24,0,0,1-120.61,15.52C646.89,565.93,571.15,549.57,495,517.49Z" transform="translate(0 -367.2)"/><path class="cls-48" d="M494.74,520.25c-79.12-32.62-147.84-48.39-214.17-48.39-48.81,0-95.58,9-143.92,25.72A460.59,460.59,0,0,1,54.8,517.73,395.46,395.46,0,0,1,0,522.26v1a397.7,397.7,0,0,0,54.85-4.53A461.85,461.85,0,0,0,137,498.52c48.25-16.72,94.91-25.67,143.6-25.67,66.17,0,134.76,15.74,213.81,48.32C570,552.4,645,568.33,718.64,568.33a479,479,0,0,0,123.25-16v-1a477.58,477.58,0,0,1-123.25,16C645.15,567.34,570.23,551.44,494.74,520.25Z" transform="translate(0 -367.2)"/><path class="cls-49" d="M494.54,523c-78.46-31.74-146.64-47.12-212.25-47.12-49.58,0-97.05,9.14-146.07,26.37a463,463,0,0,1-81.58,20.59A396.33,396.33,0,0,1,0,527.73v1a398.59,398.59,0,0,0,54.69-4.88,465.47,465.47,0,0,0,81.86-20.65c48.93-17.2,96.28-26.32,145.74-26.32,65.45,0,133.5,15.35,211.89,47,74.87,30.34,149.09,45.81,221.83,45.81a484.77,484.77,0,0,0,125.88-16.49v-1A483.46,483.46,0,0,1,716,568.74C643.41,568.74,569.31,553.31,494.54,523Z" transform="translate(0 -367.2)"/><path class="cls-50" d="M494.34,525.77c-77.8-30.86-145.45-45.86-210.33-45.86-50.35,0-98.52,9.31-148.22,27a468.81,468.81,0,0,1-81.3,21A399.12,399.12,0,0,1,0,533.19v1A399.52,399.52,0,0,0,54.54,529a469.93,469.93,0,0,0,81.58-21.1c49.61-17.69,97.66-27,147.89-27,64.73,0,132.25,15,210,45.78,74.16,29.45,147.55,44.46,219.39,44.46a490.32,490.32,0,0,0,128.52-17v-1a489,489,0,0,1-128.52,17C641.67,570.15,568.4,555.17,494.34,525.77Z" transform="translate(0 -367.2)"/><path class="cls-51" d="M494.14,528.52c-77.14-30-144.25-44.58-208.41-44.58-51.12,0-100,9.46-150.38,27.68a471.29,471.29,0,0,1-81,21.48A398.24,398.24,0,0,1,0,538.65v1a399.08,399.08,0,0,0,54.39-5.55,472.63,472.63,0,0,0,81.3-21.54c50.29-18.19,99.05-27.63,150-27.63,64,0,131,14.59,208,44.52,73.44,28.56,146,43.1,217,43.1a495.89,495.89,0,0,0,131.16-17.49v-1a495.11,495.11,0,0,1-131.16,17.53C639.93,571.56,567.48,557,494.14,528.52Z" transform="translate(0 -367.2)"/><path class="cls-52" d="M493.94,531.28C417.46,502.2,350.89,488,287.45,488c-51.88,0-101.5,9.55-152.53,28.34a479.25,479.25,0,0,1-80.74,21.92A399.47,399.47,0,0,1,0,544.12v1a400,400,0,0,0,54.23-5.9,480.43,480.43,0,0,0,81-22C186.2,498.48,235.69,489,287.45,489c63.29,0,129.74,14.2,206.14,43.25C566.31,559.88,638.05,574,708.1,574a502,502,0,0,0,133.79-18v-1A500.82,500.82,0,0,1,708.1,573C638.19,573,566.56,558.91,493.94,531.28Z" transform="translate(0 -367.2)"/><path class="cls-53" d="M493.74,534c-75.82-28.2-141.86-42-204.56-42-52.66,0-103,9.77-154.7,29A478.8,478.8,0,0,1,54,543.34a400.36,400.36,0,0,1-54,6.24v1a401,401,0,0,0,54.08-6.23,481.24,481.24,0,0,0,80.75-22.43C186.48,502.73,236.64,493,289.18,493c62.55,0,128.47,13.81,204.21,42,72,26.78,142.93,40.4,212.07,40.4a508.17,508.17,0,0,0,136.43-18.49v-1a507,507,0,0,1-136.43,18.53C636.45,574.37,565.64,560.78,493.74,534Z" transform="translate(0 -367.2)"/></g></g></g></svg>