<svg xmlns="http://www.w3.org/2000/svg" xmlns:xlink="http://www.w3.org/1999/xlink" viewBox="0 0 845.09 208.16"><defs><style>.cls-1{isolation:isolate;}.cls-2{fill:#f0efef;}.cls-3{fill:#f0f0f0;}.cls-4{fill:#f1f1f1;}.cls-5{fill:#f2f1f1;}.cls-6{fill:#f3f2f2;}.cls-7{fill:#f3f3f3;}.cls-8{fill:#f4f4f4;}.cls-9{fill:#f5f4f4;}.cls-10{fill:#f6f5f5;}.cls-11{fill:#f6f6f6;}.cls-12{fill:#f7f7f7;}.cls-13{fill:#f8f8f8;}.cls-14{fill:#f9f9f9;}.cls-15{fill:#fafafa;}.cls-16{fill:#fbfbfb;}.cls-17{fill:#fcfcfc;}.cls-18{fill:#fefefe;}.cls-19,.cls-23,.cls-24,.cls-25,.cls-26,.cls-27,.cls-28,.cls-29,.cls-30,.cls-31,.cls-32,.cls-33,.cls-34,.cls-35,.cls-36,.cls-37,.cls-38,.cls-39,.cls-40,.cls-41,.cls-42,.cls-43,.cls-44,.cls-45,.cls-46,.cls-47,.cls-48,.cls-49,.cls-50,.cls-51,.cls-52,.cls-53{fill:#fff;}.cls-20,.cls-21{mix-blend-mode:multiply;}.cls-20{fill:url(#linear-gradient);}.cls-21{fill:url(#linear-gradient-2);}.cls-22{mix-blend-mode:screen;}.cls-23{opacity:0.97;}.cls-24{opacity:0.95;}.cls-25{opacity:0.92;}.cls-26{opacity:0.9;}.cls-27{opacity:0.87;}.cls-28{opacity:0.85;}.cls-29{opacity:0.82;}.cls-30{opacity:0.79;}.cls-31{opacity:0.77;}.cls-32{opacity:0.74;}.cls-33{opacity:0.72;}.cls-34{opacity:0.69;}.cls-35{opacity:0.66;}.cls-36{opacity:0.64;}.cls-37{opacity:0.61;}.cls-38{opacity:0.59;}.cls-39{opacity:0.56;}.cls-40{opacity:0.54;}.cls-41{opacity:0.51;}.cls-42{opacity:0.48;}.cls-43{opacity:0.46;}.cls-44{opacity:0.43;}.cls-45{opacity:0.41;}.cls-46{opacity:0.38;}.cls-47{opacity:0.35;}.cls-48{opacity:0.33;}.cls-49{opacity:0.3;}.cls-50{opacity:0.28;}.cls-51{opacity:0.25;}.cls-52{opacity:0.23;}.cls-53{opacity:0.2;}</style><linearGradient id="linear-gradient" x1="842.8" y1="477.37" x2="9.8" y2="477.37" gradientUnits="userSpaceOnUse"><stop offset="0.04" stop-opacity="0"/><stop offset="0.31" stop-opacity="0.2"/><stop offset="0.71" stop-color="#040407" stop-opacity="0"/><stop offset="0.97" stop-opacity="0"/></linearGradient><linearGradient id="linear-gradient-2" x1="-0.26" y1="487.17" x2="841.63" y2="487.17" gradientUnits="userSpaceOnUse"><stop offset="0.04" stop-opacity="0.4"/><stop offset="0.38" stop-opacity="0.4"/><stop offset="0.59" stop-color="#5c5d5c" stop-opacity="0.33"/><stop offset="0.71" stop-color="#808180" stop-opacity="0.3"/><stop offset="0.97" stop-color="#bcbec0" stop-opacity="0.2"/></linearGradient></defs><title>waves-gradient-3</title><g class="cls-1"><g id="Wave_Pattern" data-name="Wave Pattern"><path class="cls-2" d="M841.89,393.76C804,401.06,763.2,414.35,721.25,434c-68.46,32-134,47.89-205.16,47.89-48.61,0-99.87-7.41-156.48-22.17q-77.82-20.29-154.17-20.36A557.34,557.34,0,0,0,0,478.56v2.15a555.49,555.49,0,0,1,205.44-39.38q75.94,0,153.67,20.3c56.73,14.79,108.16,22.23,157,22.23,71.47,0,137.34-16,206-48.07,41.67-19.5,82.21-32.71,119.79-40Z" transform="translate(3.2 -383.09)"/><path class="cls-3" d="M841.89,398.19c-38.14,7-79.32,20.19-121.53,40.13-68,32.07-133,48.06-203.53,48.07-48.94,0-100.54-7.84-157.72-23.58C307.05,448.54,255.24,441.43,204,441.43c-69.42,0-137.69,13-204,38.95v2.06c66.35-26.09,134.6-39.09,204-39.09,51,0,102.68,7.08,154.59,21.31,57.3,15.78,109.07,23.64,158.21,23.64,70.81,0,136.12-16.09,204.34-48.25,41.94-19.82,82.85-32.91,120.72-39.91Z" transform="translate(3.2 -383.09)"/><path class="cls-4" d="M841.89,402.62c-38.42,6.74-80,19.79-122.42,40-67.59,32.12-132,48.25-201.91,48.25-49.26,0-101.21-8.25-159-25a562.71,562.71,0,0,0-156-22.39c-68.88,0-136.7,12.94-202.62,38.67v2c65.93-25.82,133.74-38.81,202.62-38.81a561.49,561.49,0,0,1,155.52,22.33c57.86,16.76,110,25.05,159.42,25.05,70.15,0,134.91-16.21,202.68-48.43,42.21-20.13,83.49-33.11,121.65-39.83Z" transform="translate(3.2 -383.09)"/><path class="cls-5" d="M841.89,407.05c-38.7,6.45-80.59,19.38-123.31,40-67.15,32.17-131.06,48.43-200.29,48.43-49.58,0-101.88-8.67-160.19-26.39a543,543,0,0,0-156.89-23.41C132.88,445.64,65.5,458.58,0,484v1.86c65.51-25.55,132.88-38.52,201.21-38.52a541.43,541.43,0,0,1,156.44,23.34c58.42,17.75,110.87,26.46,160.64,26.46,69.49,0,133.7-16.34,201-48.6,42.49-20.46,84.13-33.32,122.58-39.76Z" transform="translate(3.2 -383.09)"/><path class="cls-6" d="M841.89,411.48c-39,6.17-81.22,19-124.2,39.87C651,483.58,587.6,500,519,500c-49.9,0-102.54-9.1-161.42-27.81a525.49,525.49,0,0,0-157.8-24.42C132,447.74,65.08,460.67,0,485.86v1.77c65.09-25.28,132-38.24,199.8-38.24a523.58,523.58,0,0,1,157.36,24.36c59,18.74,111.78,27.87,161.86,27.87,68.84,0,132.49-16.46,199.37-48.78,42.75-20.78,84.76-33.53,123.5-39.69Z" transform="translate(3.2 -383.09)"/><path class="cls-7" d="M841.89,415.91c-39.25,5.89-81.85,18.58-125.1,39.79-66.26,32.28-129.1,48.8-197,48.8-50.22,0-103.17-9.65-162.66-29.22a505.44,505.44,0,0,0-158.7-25.43c-67.24,0-133.73,12.91-198.39,37.84v1.67c64.67-25,131.15-37.95,198.39-37.95a504.14,504.14,0,0,1,158.29,25.37c59.59,19.61,112.68,29.28,163.07,29.28,68.18,0,131.29-16.59,197.71-48.95,43-21.11,85.4-33.74,124.43-39.62Z" transform="translate(3.2 -383.09)"/><path class="cls-8" d="M841.89,420.33c-39.53,5.61-82.49,18.19-126,39.71-65.82,32.34-128.13,49-195.42,49C469.94,509,416.65,499,356.59,478.4A490.61,490.61,0,0,0,197,452c-66.69,0-132.74,12.9-197,37.57v1.57c64.25-24.74,130.29-37.67,197-37.67a489.33,489.33,0,0,1,159.21,26.39c60.16,20.58,113.58,30.69,164.29,30.69,67.52,0,130.08-16.72,196-49.13,43.29-21.43,86-33.94,125.36-39.54Z" transform="translate(3.2 -383.09)"/><path class="cls-9" d="M841.89,424.76c-39.81,5.33-83.12,17.78-126.88,39.63-65.39,32.39-127.15,49.17-193.8,49.17-50.86,0-104.49-10.51-165.12-32a477,477,0,0,0-160.52-27.46c-66.14,0-131.75,12.88-195.57,37.28v1.49c63.83-24.48,129.43-37.39,195.57-37.39a476,476,0,0,1,160.13,27.4c60.73,21.57,114.49,32.1,165.51,32.1,66.87,0,128.87-16.84,194.4-49.3,43.56-21.76,86.67-34.15,126.28-39.47Z" transform="translate(3.2 -383.09)"/><path class="cls-10" d="M841.89,429.19c-40.08,5.05-83.75,17.38-127.77,39.54-65,32.45-126.18,49.36-192.18,49.36-51.18,0-105.15-10.94-166.36-33.45a464.72,464.72,0,0,0-161.42-28.48C128.57,456.16,63.4,469,0,493.17v1.39c63.41-24.21,128.57-37.11,194.16-37.11a463.91,463.91,0,0,1,161.06,28.42c61.29,22.55,115.39,33.51,166.72,33.51,66.21,0,127.66-17,192.74-49.48,43.83-22.08,87.31-34.36,127.21-39.39Z" transform="translate(3.2 -383.09)"/><path class="cls-11" d="M841.89,433.62c-40.36,4.76-84.39,17-128.66,39.46-64.51,32.5-125.2,49.53-190.55,49.54-51.51,0-105.82-11.36-167.6-34.86a453.49,453.49,0,0,0-162.33-29.5C127.7,458.26,63,471.12,0,495v1.29c63-23.94,127.7-36.82,192.75-36.82a452.5,452.5,0,0,1,162,29.44c61.86,23.53,116.29,34.91,167.95,34.91,65.54,0,126.44-17.1,191.07-49.66,44.1-22.39,88-34.56,128.14-39.31Z" transform="translate(3.2 -383.09)"/><path class="cls-12" d="M841.89,438.05a374.84,374.84,0,0,0-129.55,39.37C648.27,510,588.11,527.14,523.41,527.14c-51.83,0-106.49-11.77-168.83-36.27-53.61-21.06-108.45-30.5-163.24-30.5-64.5,0-128.78,12.84-191.34,36.45V498c62.57-23.67,126.84-36.54,191.34-36.54,54.67,0,109.39,9.43,162.9,30.46,62.42,24.53,117.2,36.32,169.17,36.32,64.89,0,125.24-17.22,189.41-49.83a373.7,373.7,0,0,1,129.07-39.24Z" transform="translate(3.2 -383.09)"/><path class="cls-13" d="M841.89,442.48a366.17,366.17,0,0,0-130.44,39.29c-63.63,32.61-123.25,49.9-187.31,49.9C472,531.67,417,519.49,354.07,494c-53.79-21.8-109-31.52-164.14-31.52C126,462.47,62.14,475.3,0,498.65v1.1c62.15-23.4,126-36.25,189.93-36.25A435.17,435.17,0,0,1,353.76,495c62.93,25.65,118.1,37.73,170.38,37.73,64.23,0,124-17.35,187.76-50a365.33,365.33,0,0,1,130-39.17Z" transform="translate(3.2 -383.09)"/><path class="cls-14" d="M841.89,446.91a358.33,358.33,0,0,0-131.34,39.2c-63.18,32.66-122.27,50.09-185.68,50.09-52.47,0-107.88-12.48-171.3-39.09-54-22.43-109.47-32.54-165-32.54-63.41,0-126.8,12.82-188.52,35.91v1c61.73-23.13,125.12-36,188.52-36,55.48,0,110.83,10.09,164.75,32.49,63.49,26.64,119,39.14,171.6,39.14,63.57,0,122.82-17.47,186.1-50.18a357.09,357.09,0,0,1,130.92-39.1Z" transform="translate(3.2 -383.09)"/><path class="cls-15" d="M841.89,451.34a350.53,350.53,0,0,0-132.23,39.12c-62.75,32.71-121.29,50.27-184.06,50.27-52.79,0-108.54-12.9-172.53-40.5-54.19-23.17-110-33.55-166-33.55C124.25,466.68,61.3,479.48,0,502.3v.91c61.31-22.86,124.26-35.68,187.11-35.68,55.89,0,111.57,10.36,165.67,33.5,64.06,27.62,119.91,40.55,172.82,40.55,62.92,0,121.61-17.6,184.44-50.36a349.78,349.78,0,0,1,131.85-39Z" transform="translate(3.2 -383.09)"/><path class="cls-16" d="M841.89,455.77a343.71,343.71,0,0,0-133.12,39c-62.31,32.77-120.32,50.46-182.44,50.46-53.11,0-109.21-13.33-173.77-41.91-54.36-23.92-110.48-34.57-166.86-34.57-62.31,0-124.82,12.79-185.7,35.35V505c60.89-22.6,123.4-35.41,185.7-35.41,56.29,0,112.31,10.64,166.6,34.52,64.62,28.61,120.81,42,174,42,62.26,0,120.4-17.73,182.78-50.53a342.88,342.88,0,0,1,132.78-38.95Z" transform="translate(3.2 -383.09)"/><path class="cls-17" d="M841.89,460.2a337.15,337.15,0,0,0-134,38.95C646,532,588.54,549.79,527.06,549.79c-53.43,0-109.87-13.75-175-43.32-54.55-24.66-111-35.59-167.77-35.59C122.52,470.88,60.46,483.66,0,506v.72c60.47-22.33,122.53-35.12,184.29-35.12,56.69,0,113.06,10.91,167.52,35.53,65.18,29.6,121.72,43.37,175.25,43.37,61.6,0,119.2-17.85,181.13-50.71a336.28,336.28,0,0,1,133.7-38.87Z" transform="translate(3.2 -383.09)"/><path class="cls-18" d="M841.89,464.63A331,331,0,0,0,707,503.49c-61.43,32.88-118.37,50.83-179.19,50.83-53.76,0-110.55-14.17-176.24-44.73C296.83,484.19,240.05,473,182.88,473,121.66,473,60,485.75,0,507.78v.63c60.05-22.06,121.67-34.84,182.88-34.84,57.1,0,113.8,11.19,168.44,36.55,65.75,30.59,122.62,44.78,176.48,44.78,60.94,0,118-18,179.46-50.88a330.23,330.23,0,0,1,134.63-38.8Z" transform="translate(3.2 -383.09)"/><path class="cls-19" d="M841.89,469.06A325.23,325.23,0,0,0,706.1,507.84c-61,32.93-117.39,51-177.57,51-54.08,0-111.22-14.59-177.48-46.14-54.9-26.14-112-37.61-169.58-37.61C120.8,475.09,59.62,487.85,0,509.61v.53c59.63-21.79,120.81-34.55,181.47-34.55,57.5,0,114.54,11.46,169.37,37.57,66.31,31.57,123.52,46.18,177.69,46.18,60.28,0,116.77-18.11,177.8-51.06a324.85,324.85,0,0,1,135.56-38.72Z" transform="translate(3.2 -383.09)"/><path class="cls-20" d="M838.69,397.27V393.2c-38,7.31-79,20.64-121.06,40.32-68.36,32-133.72,47.79-204.74,47.79-48.51,0-99.68-7.39-156.23-22.13q-77.93-20.32-154.42-20.39a554.85,554.85,0,0,0-135,16.57A572.86,572.86,0,0,0-3.2,477.94v34.52a619.32,619.32,0,0,1,59.77-18.63c40.4-10.32,81.18-16,121.7-16,57.27,0,114,11.41,168.61,37.39,66.47,31.65,124,46.36,178.45,46.36h0a311.66,311.66,0,0,0,89.11-13.25c29.43-8.69,58.92-21.5,89.51-38a323.13,323.13,0,0,1,134.73-38.5v-4m0-66.2v-4.07m0,8.37v-4.07m0,8.37V406.1m0,8.37v-4.05m0,8.37v-4.05m0,8.4v-4.05m0,8.42v-4.05m0,8.42v-4m0,8.4v-4m0,8.41v-4m0,8.43v-4m0,8.45v-4m0,8.45v-4m0,8.46v-4m0,8.47v-4m0,8.49v-4" transform="translate(3.2 -383.09)"/><path class="cls-21" d="M841.63,544.17c-115.27,12.55-230.28-14.75-342.15-79.3-128.83-74.34-233.06-95.26-351.72-72.63-53.54,10.21-104,11.13-148,4.37V566c41.76-1.87,87.57-11.12,134.66-28.62,113.24-42.08,219.49-38.8,358.9,13.06,120.25,44.72,237.42,52.68,348.33,21.85Z" transform="translate(3.2 -383.09)"/><g class="cls-22"><path class="cls-19" d="M786.94,546.66c-96.81,0-193.12-27.92-287.22-82.21-96.34-55.6-179-81.36-264.17-81.36a466.4,466.4,0,0,0-87.88,8.67,476.94,476.94,0,0,1-89.09,8.69A388.12,388.12,0,0,1-.26,396.11v1a389.64,389.64,0,0,0,58.84,4.33,477.88,477.88,0,0,0,89.27-8.71,465.4,465.4,0,0,1,87.7-8.65c85,0,167.44,25.68,263.69,81.22,94.22,54.37,190.7,82.35,287.7,82.35a504,504,0,0,0,54.69-3v-1A506.57,506.57,0,0,1,786.94,546.66Z" transform="translate(3.2 -383.09)"/><path class="cls-23" d="M499.52,467.2c-95.67-54.71-177.78-80.08-262.25-80.08-29.57,0-59.32,3.23-90,9.32a471.24,471.24,0,0,1-88.8,9.14,387.39,387.39,0,0,1-58.69-4v1a388.84,388.84,0,0,0,58.69,4,471.48,471.48,0,0,0,89-9.15,459.8,459.8,0,0,1,89.85-9.3c84.27,0,166.19,25.3,261.77,79.95,93.51,53.48,189.17,81,285.26,81a474.79,474.79,0,0,0,57.33-3.49v-1a474.79,474.79,0,0,1-57.33,3.49C688.39,548.07,592.91,520.61,499.52,467.2Z" transform="translate(3.2 -383.09)"/><path class="cls-24" d="M499.32,470c-95-53.82-176.58-78.82-260.33-78.82-30.34,0-60.76,3.52-92.19,10a465.61,465.61,0,0,1-88.53,9.58A387.9,387.9,0,0,1-.26,407v1a389.46,389.46,0,0,0,58.54,3.65,466.7,466.7,0,0,0,88.71-9.6c31.37-6.45,61.73-10,92-10,83.55,0,164.93,24.92,259.86,78.69,92.79,52.59,187.62,79.64,282.82,79.64a454.69,454.69,0,0,0,60-4v-1a454.69,454.69,0,0,1-60,4C686.65,549.47,592,522.48,499.32,470Z" transform="translate(3.2 -383.09)"/><path class="cls-25" d="M499.11,472.72c-94.34-52.94-175.38-77.55-258.4-77.55-31.1,0-62.2,3.79-94.34,10.63a461,461,0,0,1-88.25,10A388.45,388.45,0,0,1-.26,412.5v1a388.63,388.63,0,0,0,58.38,3.31,462.11,462.11,0,0,0,88.44-10c32.09-6.83,63.12-10.61,94.15-10.61,82.83,0,163.68,24.54,257.94,77.43,92.07,51.69,186.08,78.28,280.38,78.28a439.23,439.23,0,0,0,62.6-4.49v-1a439.23,439.23,0,0,1-62.6,4.49C684.91,550.88,591.07,524.35,499.11,472.72Z" transform="translate(3.2 -383.09)"/><path class="cls-26" d="M498.91,475.48c-93.68-52.06-174.18-76.29-256.48-76.29-31.87,0-63.64,4.07-96.5,11.29a456.32,456.32,0,0,1-88,10.46A387.64,387.64,0,0,1-.26,418v1a389.2,389.2,0,0,0,58.23,3,457.4,457.4,0,0,0,88.16-10.48c32.81-7.21,64.5-11.26,96.3-11.26,82.11,0,162.42,24.15,256,76.16,91.36,50.81,184.54,76.93,277.94,76.93a428.26,428.26,0,0,0,65.24-5v-1a429.54,429.54,0,0,1-65.24,5C683.17,552.29,590.15,526.22,498.91,475.48Z" transform="translate(3.2 -383.09)"/><path class="cls-27" d="M498.71,478.23c-93-51.17-173-75-254.56-75-32.64,0-65.08,4.34-98.65,11.94a453.31,453.31,0,0,1-87.69,10.9A389.6,389.6,0,0,1-.26,423.43v1A391.15,391.15,0,0,0,57.82,427,454.43,454.43,0,0,0,145.7,416.1c33.52-7.59,65.89-11.92,98.45-11.92,81.38,0,161.16,23.77,254.11,74.9,90.63,49.92,183,75.58,275.49,75.58a421.85,421.85,0,0,0,67.88-5.49v-1a421.85,421.85,0,0,1-67.88,5.49C681.43,553.69,589.24,528.09,498.71,478.23Z" transform="translate(3.2 -383.09)"/><path class="cls-28" d="M498.51,481c-92.36-50.29-171.79-73.75-252.63-73.75-33.42,0-66.52,4.61-100.81,12.6a450.42,450.42,0,0,1-87.42,11.34A388.81,388.81,0,0,1-.26,428.89v1a389.05,389.05,0,0,0,57.92,2.29,450.86,450.86,0,0,0,87.62-11.37c34.23-8,67.26-12.57,100.6-12.57,80.65,0,159.9,23.39,252.18,73.63,89.92,49,181.45,74.22,273.06,74.22a417.66,417.66,0,0,0,70.51-6v-1a416.65,416.65,0,0,1-70.51,6C679.69,555.1,588.32,530,498.51,481Z" transform="translate(3.2 -383.09)"/><path class="cls-29" d="M498.31,483.75c-91.7-49.41-170.59-72.48-250.71-72.48-34.19,0-68,4.87-103,13.25a448.27,448.27,0,0,1-87.14,11.79,389.38,389.38,0,0,1-57.75-2v1a391.09,391.09,0,0,0,57.77,1.94,448.66,448.66,0,0,0,87.34-11.81c34.94-8.37,68.64-13.22,102.75-13.22,79.93,0,158.64,23,250.26,72.36,89.21,48.14,179.92,72.87,270.62,72.87A414.31,414.31,0,0,0,841.63,551v-1a413.37,413.37,0,0,1-73.15,6.49C678,556.5,587.4,531.82,498.31,483.75Z" transform="translate(3.2 -383.09)"/><path class="cls-30" d="M498.11,486.5c-91-48.52-169.4-71.21-248.79-71.21-34.95,0-69.41,5.13-105.12,13.92a446.8,446.8,0,0,1-86.86,12.22,390.08,390.08,0,0,1-57.6-1.61v1a391.63,391.63,0,0,0,57.61,1.61,447.37,447.37,0,0,0,87.07-12.26c35.65-8.77,70-13.88,104.9-13.88,79.21,0,157.39,22.62,248.34,71.1,88.49,47.25,178.38,71.52,268.18,71.52a412.47,412.47,0,0,0,75.79-7v-1a411.61,411.61,0,0,1-75.79,7C676.21,557.91,586.48,533.69,498.11,486.5Z" transform="translate(3.2 -383.09)"/><path class="cls-31" d="M497.91,489.26c-90.38-47.64-168.2-69.94-246.87-69.94-35.72,0-70.85,5.38-107.28,14.57a444.51,444.51,0,0,1-86.58,12.66A389.29,389.29,0,0,1-.26,445.28v1a391,391,0,0,0,57.46,1.26A445.18,445.18,0,0,0,144,434.82c36.37-9.17,71.41-14.53,107-14.53,78.49,0,156.13,22.24,246.43,69.83,87.77,46.36,176.83,70.17,265.74,70.17a412.61,412.61,0,0,0,78.42-7.49v-1a411.81,411.81,0,0,1-78.42,7.5C674.47,559.32,585.57,535.56,497.91,489.26Z" transform="translate(3.2 -383.09)"/><path class="cls-32" d="M497.7,492c-89.71-46.76-167-68.68-244.94-68.68-36.49,0-72.29,5.63-109.43,15.23A444.09,444.09,0,0,1,57,451.67a390,390,0,0,1-57.29-.93v1a390.34,390.34,0,0,0,57.31.92,444.48,444.48,0,0,0,86.51-13.13c37.08-9.58,72.79-15.2,109.2-15.2,77.76,0,154.88,21.86,244.51,68.57,87.06,45.47,175.29,68.81,263.3,68.81a413.58,413.58,0,0,0,81.06-8v-1a412.07,412.07,0,0,1-81.06,8C672.73,560.72,584.65,537.43,497.7,492Z" transform="translate(3.2 -383.09)"/><path class="cls-33" d="M497.5,494.78c-89.05-45.88-165.8-67.41-243-67.41-37.26,0-73.73,5.87-111.58,15.88a442.66,442.66,0,0,1-86,13.54A389.21,389.21,0,0,1-.26,456.2v1a392.31,392.31,0,0,0,57.15.59,444.18,444.18,0,0,0,86.25-13.58c37.78-10,74.17-15.85,111.34-15.85,77,0,153.62,21.48,242.59,67.3,86.34,44.58,173.75,67.46,260.86,67.46a414.64,414.64,0,0,0,83.7-8.49v-1a413.93,413.93,0,0,1-83.7,8.5C671,562.13,583.73,539.3,497.5,494.78Z" transform="translate(3.2 -383.09)"/><path class="cls-34" d="M497.3,497.53c-88.39-45-164.6-66.14-241.1-66.14-38,0-75.18,6.12-113.74,16.54a442.08,442.08,0,0,1-85.74,14,391.38,391.38,0,0,1-57-.25v1a391.71,391.71,0,0,0,57,.24,442.9,442.9,0,0,0,86-14c38.49-10.41,75.55-16.5,113.49-16.5,76.32,0,152.37,21.09,240.68,66,85.62,43.69,172.2,66.11,258.42,66.11a416.34,416.34,0,0,0,86.33-9v-1a415.61,415.61,0,0,1-86.33,9C669.25,563.54,582.81,541.17,497.3,497.53Z" transform="translate(3.2 -383.09)"/><path class="cls-35" d="M497.1,500.29c-87.73-44.1-163.41-64.87-239.17-64.87-38.81,0-76.63,6.35-115.9,17.19A441.67,441.67,0,0,1,56.56,467a392,392,0,0,1-56.82.09v1a391.07,391.07,0,0,0,56.85-.1,442.38,442.38,0,0,0,85.69-14.46c39.2-10.83,76.94-17.16,115.65-17.16,75.59,0,151.1,20.71,238.75,64.77,84.9,42.8,170.67,64.76,256,64.76a419.29,419.29,0,0,0,89-9.49v-1a418.58,418.58,0,0,1-89,9.5C667.51,564.94,581.9,543,497.1,500.29Z" transform="translate(3.2 -383.09)"/><path class="cls-36" d="M496.9,503.05c-87.07-43.22-162.21-63.6-237.25-63.6-39.57,0-78.08,6.57-118,17.84a441.18,441.18,0,0,1-85.19,14.87,390,390,0,0,1-56.67.43v1a393.16,393.16,0,0,0,56.69-.44,442.53,442.53,0,0,0,85.42-14.91c39.91-11.25,78.32-17.81,117.8-17.81,74.86,0,149.84,20.33,236.83,63.51,84.19,41.9,169.13,63.4,253.54,63.4a422.66,422.66,0,0,0,91.61-10v-1a421.37,421.37,0,0,1-91.61,10C665.77,566.35,581,544.9,496.9,503.05Z" transform="translate(3.2 -383.09)"/><path class="cls-37" d="M496.7,505.81c-86.41-42.34-161-62.34-235.33-62.34-40.34,0-79.53,6.8-120.21,18.5a441.32,441.32,0,0,1-84.91,15.31,392.15,392.15,0,0,1-56.51.78v1a394,394,0,0,0,56.54-.78,442.8,442.8,0,0,0,85.14-15.35c40.61-11.68,79.7-18.46,120-18.46,74.14,0,148.59,19.94,234.91,62.24,83.48,41,167.59,62,251.11,62a425.78,425.78,0,0,0,94.24-10.49v-1a425.07,425.07,0,0,1-94.24,10.51C664,567.76,580.06,546.77,496.7,505.81Z" transform="translate(3.2 -383.09)"/><path class="cls-38" d="M496.5,508.56c-85.75-41.45-159.82-61.06-233.41-61.06-41.11,0-81,7-122.36,19.15A442.49,442.49,0,0,1,56.09,482.4,391.41,391.41,0,0,1-.26,483.52v1a393.26,393.26,0,0,0,56.38-1.13A442.41,442.41,0,0,0,141,467.59c41.32-12.11,81.09-19.12,122.1-19.12,73.42,0,147.33,19.56,233,61,82.75,40.13,166,60.69,248.66,60.69a429.15,429.15,0,0,0,96.88-11v-1a428.6,428.6,0,0,1-96.88,11C662.29,569.16,579.15,548.64,496.5,508.56Z" transform="translate(3.2 -383.09)"/><path class="cls-39" d="M496.3,511.32c-85.08-40.57-158.62-59.8-231.49-59.8-41.88,0-82.43,7.24-124.51,19.82a443.69,443.69,0,0,1-84.36,16.18A390.83,390.83,0,0,1-.26,489v1A394.08,394.08,0,0,0,56,488.51a444.41,444.41,0,0,0,84.6-16.24c42-12.55,82.46-19.77,124.24-19.77,72.7,0,146.08,19.18,231.08,59.71,82,39.24,164.5,59.34,246.22,59.34a433.52,433.52,0,0,0,99.52-11.49v-1a433,433,0,0,1-99.52,11.51C660.55,570.57,578.23,550.51,496.3,511.32Z" transform="translate(3.2 -383.09)"/><path class="cls-40" d="M496.09,514.08c-84.41-39.69-157.42-58.53-229.56-58.53-42.65,0-83.88,7.45-126.67,20.47a444.56,444.56,0,0,1-84.08,16.63,394.43,394.43,0,0,1-56,1.8v1a393.51,393.51,0,0,0,56.08-1.8A444.9,444.9,0,0,0,140.14,477c42.71-13,83.84-20.42,126.39-20.42,72,0,144.82,18.79,229.16,58.44,81.32,38.35,163,58,243.79,58a438.1,438.1,0,0,0,102.15-12v-1a437,437,0,0,1-102.15,12C658.81,572,577.31,552.38,496.09,514.08Z" transform="translate(3.2 -383.09)"/><path class="cls-41" d="M495.89,516.84C412.14,478,339.67,459.57,268.26,459.57c-43.42,0-85.34,7.66-128.83,21.13a445.87,445.87,0,0,1-83.8,17.07A393.88,393.88,0,0,1-.26,499.91v1a394.24,394.24,0,0,0,55.92-2.15,445.19,445.19,0,0,0,84.05-17.12c43.41-13.44,85.23-21.08,128.55-21.08,71.24,0,143.56,18.42,227.24,57.18,80.6,37.46,161.42,56.63,241.34,56.63a442.9,442.9,0,0,0,104.79-12.48v-1a441.89,441.89,0,0,1-104.79,12.51C657.07,573.38,576.39,554.25,495.89,516.84Z" transform="translate(3.2 -383.09)"/><path class="cls-42" d="M495.69,519.59c-83.09-37.92-155-56-225.71-56-44.19,0-86.8,7.86-131,21.78a447,447,0,0,1-83.52,17.51A394.63,394.63,0,0,1-.26,505.37v1a395.12,395.12,0,0,0,55.77-2.48,447.94,447.94,0,0,0,83.77-17.56c44.11-13.9,86.61-21.74,130.7-21.74,70.52,0,142.3,18,225.32,55.91,79.89,36.57,159.88,55.28,238.9,55.28a447.4,447.4,0,0,0,107.43-13v-1a446.43,446.43,0,0,1-107.43,13C655.33,574.79,575.48,556.11,495.69,519.59Z" transform="translate(3.2 -383.09)"/><path class="cls-43" d="M495.49,522.35c-82.43-37-153.83-54.73-223.79-54.73-45,0-88.25,8.06-133.14,22.44A449.07,449.07,0,0,1,55.32,508,394.16,394.16,0,0,1-.26,510.84v1A396.14,396.14,0,0,0,55.36,509a449.31,449.31,0,0,0,83.49-18c44.81-14.36,88-22.39,132.85-22.39,69.8,0,141.05,17.64,223.4,54.64,79.17,35.68,158.34,53.93,236.47,53.93a452.07,452.07,0,0,0,110.06-13.49v-1a451.54,451.54,0,0,1-110.06,13.51C653.59,576.19,574.56,558,495.49,522.35Z" transform="translate(3.2 -383.09)"/><path class="cls-44" d="M495.29,525.11C413.52,489,342.66,471.65,273.42,471.65c-45.73,0-89.71,8.25-135.29,23.09a450.59,450.59,0,0,1-83,18.39A393.43,393.43,0,0,1-.26,516.3v1a395.41,395.41,0,0,0,55.46-3.17,452.37,452.37,0,0,0,83.23-18.44c45.49-14.82,89.37-23.05,135-23.05,69.07,0,139.79,17.27,221.48,53.38,78.46,34.79,156.8,52.58,234,52.58a457.34,457.34,0,0,0,112.7-14v-1a456.42,456.42,0,0,1-112.7,14C651.85,577.6,573.64,559.85,495.29,525.11Z" transform="translate(3.2 -383.09)"/><path class="cls-45" d="M495.09,527.86C414,492.6,343.65,475.67,275.14,475.67c-46.5,0-91.17,8.44-137.45,23.75A452.7,452.7,0,0,1,55,518.25,394.2,394.2,0,0,1-.26,521.76v1a396.37,396.37,0,0,0,55.31-3.5,454.9,454.9,0,0,0,83-18.89c46.19-15.29,90.75-23.7,137.14-23.7,68.35,0,138.53,16.88,219.57,52.11C572.44,562.67,650,580,726.29,580a462.8,462.8,0,0,0,115.34-14.48v-1A461.45,461.45,0,0,1,726.29,579C650.11,579,572.72,561.72,495.09,527.86Z" transform="translate(3.2 -383.09)"/><path class="cls-46" d="M494.89,530.62c-80.45-34.38-150.24-50.92-218-50.92-47.27,0-92.64,8.62-139.6,24.4a454.91,454.91,0,0,1-82.41,19.28A395.08,395.08,0,0,1-.26,527.22v1a397.12,397.12,0,0,0,55.15-3.85A457,457,0,0,0,137.57,505c46.88-15.76,92.14-24.35,139.29-24.35,67.63,0,137.28,16.49,217.65,50.84,77,33,153.71,49.87,229.15,49.87a467.91,467.91,0,0,0,118-15v-1a467,467,0,0,1-118,15C648.37,580.41,571.81,563.59,494.89,530.62Z" transform="translate(3.2 -383.09)"/><path class="cls-47" d="M494.68,533.38c-79.78-33.5-149-49.66-216.09-49.66-48,0-94.11,8.8-141.76,25.06A457.41,457.41,0,0,1,54.69,528.5,397.47,397.47,0,0,1-.26,532.69v1a396.63,396.63,0,0,0,55-4.19,459.38,459.38,0,0,0,82.4-19.77c47.57-16.23,93.52-25,141.45-25,66.9,0,136,16.12,215.72,49.58,76.31,32.12,152.17,48.52,226.71,48.52a473.16,473.16,0,0,0,120.61-15.49v-1A472.25,472.25,0,0,1,721,581.82C646.63,581.82,570.89,565.46,494.68,533.38Z" transform="translate(3.2 -383.09)"/><path class="cls-48" d="M494.48,536.14c-79.12-32.62-147.84-48.39-214.17-48.39-48.81,0-95.58,9-143.92,25.71a461.51,461.51,0,0,1-81.85,20.16,397,397,0,0,1-54.8,4.53v1a399.27,399.27,0,0,0,54.85-4.53,462.78,462.78,0,0,0,82.12-20.22c48.25-16.71,94.91-25.66,143.6-25.66,66.17,0,134.76,15.73,213.8,48.32,75.59,31.23,150.64,47.16,224.27,47.16a479,479,0,0,0,123.25-16v-1a478,478,0,0,1-123.25,16C644.89,583.22,570,567.32,494.48,536.14Z" transform="translate(3.2 -383.09)"/><path class="cls-49" d="M494.28,538.89C415.82,507.16,347.64,491.77,282,491.77c-49.58,0-97,9.15-146.07,26.38a464.77,464.77,0,0,1-81.58,20.59A396.41,396.41,0,0,1-.26,543.61v1a398.54,398.54,0,0,0,54.69-4.87,465.52,465.52,0,0,0,81.86-20.66c48.93-17.2,96.28-26.31,145.74-26.31,65.45,0,133.5,15.35,211.89,47.05,74.87,30.34,149.09,45.81,221.83,45.81a484.77,484.77,0,0,0,125.88-16.49v-1a483.47,483.47,0,0,1-125.88,16.53C643.15,584.63,569.05,569.19,494.28,538.89Z" transform="translate(3.2 -383.09)"/><path class="cls-50" d="M494.08,541.65c-77.8-30.85-145.45-45.85-210.33-45.85-50.35,0-98.52,9.3-148.22,27a467.85,467.85,0,0,1-81.3,21A397.6,397.6,0,0,1-.26,549.08v1a399.58,399.58,0,0,0,54.54-5.22,468.36,468.36,0,0,0,81.58-21.1c49.61-17.69,97.66-27,147.89-27,64.73,0,132.25,15,210,45.79C567.87,572,641.27,587,713.11,587a490.32,490.32,0,0,0,128.52-17v-1a489.46,489.46,0,0,1-128.52,17C641.41,586,568.14,571.06,494.08,541.65Z" transform="translate(3.2 -383.09)"/><path class="cls-51" d="M493.88,544.41c-77.14-30-144.25-44.59-208.41-44.59-51.12,0-100,9.47-150.38,27.69a471.23,471.23,0,0,1-81,21.47A396.72,396.72,0,0,1-.26,554.54v1A399.08,399.08,0,0,0,54.13,550a472.69,472.69,0,0,0,81.3-21.55c50.29-18.18,99-27.62,150-27.62,64,0,131,14.58,208,44.52,73.44,28.56,146,43.1,217,43.1A496,496,0,0,0,841.63,571v-1a495.11,495.11,0,0,1-131.16,17.53C639.67,587.44,567.22,572.93,493.88,544.41Z" transform="translate(3.2 -383.09)"/><path class="cls-52" d="M493.68,547.17c-76.48-29.09-143-43.32-206.49-43.32-51.88,0-101.5,9.55-152.53,28.34a479.35,479.35,0,0,1-80.75,21.92A399.1,399.1,0,0,1-.26,560v1A400,400,0,0,0,54,555.11a480.43,480.43,0,0,0,81-22c50.94-18.76,100.43-28.28,152.19-28.28,63.28,0,129.73,14.2,206.14,43.25,72.72,27.67,144.46,41.75,214.51,41.75a502,502,0,0,0,133.79-18v-1a501.22,501.22,0,0,1-133.79,18C637.93,588.85,566.3,574.8,493.68,547.17Z" transform="translate(3.2 -383.09)"/><path class="cls-53" d="M493.48,549.92c-75.82-28.2-141.86-42-204.56-42-52.66,0-103,9.77-154.7,29a480.7,480.7,0,0,1-80.46,22.36,400.36,400.36,0,0,1-54,6.24v1a401.2,401.2,0,0,0,54.08-6.24,480.23,480.23,0,0,0,80.75-22.42c51.65-19.19,101.81-28.94,154.35-28.94,62.55,0,128.47,13.82,204.21,42,72,26.78,142.92,40.4,212.07,40.4a508.17,508.17,0,0,0,136.43-18.49v-1A507,507,0,0,1,705.2,590.26C636.19,590.26,565.38,576.67,493.48,549.92Z" transform="translate(3.2 -383.09)"/></g></g></g></svg>