<svg id="Layer_1" data-name="Layer 1" xmlns="http://www.w3.org/2000/svg" viewBox="0 0 1923.05 162.33" ><defs><style>.cls-1{opacity:0.25;}.cls-1,.cls-2{isolation:isolate;}.cls-2{opacity:0.35;}</style></defs><title>waves-gradient-2</title><path class="cls-1" d="M0,1032.27c59.5,40.44,185.76,9,309-38.27,209.08-80.18,448.24-88.87,671-67s443.75,92.09,667.61,88.3c171.24-2.9,205-10.39,272.87-13.38v75.28H1.52Z" transform="translate(0.47 -916.67)"/><path class="cls-2" d="M309.25,994c264.7-57.71,453-19.57,686.85,6.79,284.67,32.15,563.34,63.9,862.09,34.35,93.85-9.29,42.32-19.57,62.29-19v61.9H.52v-64.9S153,1028.08,309.25,994Z" transform="translate(0.47 -916.67)"/><path class="cls-2" d="M344.5,1002.82c82.17-26.26,166.94-45.93,252.61-36.45s169.25,33.15,254,49.33c271.88,51.92,521.7,17.67,818.05,6,89.86-3.5,216.35-13.58,251.3-12.58V1079H-.47v-57.91C-.47,1021.19,198.92,1049.45,344.5,1002.82Z" transform="translate(0.47 -916.67)"/><path d="M1729.68,1046c-288.85,18.47-589.5,16.18-872.56-17.77C745.39,1014.8,640.65,990,528.22,987.44s-248.92,30.95-353.16,69.79c-57.41,21.37-164.45,3.3-175.43-3.69V1079H1922.57v-56.91C1922.47,1022.19,1851.9,1038.06,1729.68,1046Z" transform="translate(0.47 -916.67)"/></svg>
