<svg height="100%" width="100%" id="bg-svg" viewBox="0 0 1440 400" xmlns="http://www.w3.org/2000/svg" class="transition duration-300 ease-in-out delay-150"><path d="M 0,400 C 0,400 0,100 0,100 C 101.866028708134,84.3444976076555 203.732057416268,68.688995215311 307,72 C 410.267942583732,75.311004784689 514.9377990430621,97.5885167464115 608,111 C 701.0622009569379,124.4114832535885 782.5167464114835,128.95693779904303 883,130 C 983.4832535885165,131.04306220095697 1102.9952153110046,128.58373205741628 1199,123 C 1295.0047846889954,117.41626794258373 1367.5023923444978,108.70813397129186 1440,100 C 1440,100 1440,400 1440,400 Z" stroke="none" stroke-width="0" fill="#8ed1fc66" class="transition-all duration-300 ease-in-out delay-150"></path><path d="M 0,400 C 0,400 0,200 0,200 C 97.46411483253587,184.07655502392345 194.92822966507174,168.1531100478469 302,175 C 409.07177033492826,181.8468899521531 525.7511961722488,211.46411483253584 618,224 C 710.2488038277512,236.53588516746416 778.0669856459331,231.99043062200957 857,221 C 935.9330143540669,210.00956937799043 1025.980861244019,192.57416267942583 1125,188 C 1224.019138755981,183.42583732057417 1332.0095693779904,191.71291866028707 1440,200 C 1440,200 1440,400 1440,400 Z" stroke="none" stroke-width="0" fill="#8ed1fc88" class="transition-all duration-300 ease-in-out delay-150"></path><path d="M 0,400 C 0,400 0,300 0,300 C 106.97607655502392,287.6842105263158 213.95215311004785,275.36842105263156 300,283 C 386.04784688995215,290.63157894736844 451.16746411483246,318.21052631578954 546,324 C 640.8325358851675,329.78947368421046 765.377990430622,313.78947368421046 859,298 C 952.622009569378,282.21052631578954 1015.3205741626793,266.63157894736844 1107,267 C 1198.6794258373207,267.36842105263156 1319.3397129186603,283.6842105263158 1440,300 C 1440,300 1440,400 1440,400 Z" stroke="none" stroke-width="0" fill="#8ed1fcff" class="transition-all duration-300 ease-in-out delay-150"></path></svg>
